<?xml version="1.0" encoding="UTF-8" standalone="no"?>
<svg
   xmlns:dc="http://purl.org/dc/elements/1.1/"
   xmlns:cc="http://creativecommons.org/ns#"
   xmlns:rdf="http://www.w3.org/1999/02/22-rdf-syntax-ns#"
   xmlns:svg="http://www.w3.org/2000/svg"
   xmlns="http://www.w3.org/2000/svg"
   xmlns:sodipodi="http://sodipodi.sourceforge.net/DTD/sodipodi-0.dtd"
   xmlns:inkscape="http://www.inkscape.org/namespaces/inkscape"
   inkscape:version="1.0 (4035a4fb49, 2020-05-01)"
   height="16"
   width="16"
   sodipodi:docname="refresh-page.svg"
   xml:space="preserve"
   viewBox="0 0 16 16"
   y="0px"
   x="0px"
   id="Layer_1"
   version="1.1"><metadata
   id="metadata9"><rdf:RDF><cc:Work
       rdf:about=""><dc:format>image/svg+xml</dc:format><dc:type
         rdf:resource="http://purl.org/dc/dcmitype/StillImage" /><dc:title></dc:title></cc:Work></rdf:RDF></metadata><defs
   id="defs7" /><sodipodi:namedview
   inkscape:current-layer="Layer_1"
   inkscape:window-maximized="1"
   inkscape:window-y="0"
   inkscape:window-x="0"
   inkscape:cy="8.8351119"
   inkscape:cx="12.452215"
   inkscape:zoom="34.711876"
   showgrid="true"
   id="namedview5"
   inkscape:window-height="958"
   inkscape:window-width="1920"
   inkscape:pageshadow="2"
   inkscape:pageopacity="0"
   guidetolerance="10"
   gridtolerance="10"
   objecttolerance="10"
   borderopacity="1"
   bordercolor="#666666"
   pagecolor="#ffffff"><inkscape:grid
     id="grid834"
     type="xygrid" /></sodipodi:namedview>
<g
   transform="scale(0.03125,0.0312082)"
   id="XMLID_2_">
	<path
   d="M 436.6,75.4 C 390.1,28.9 326.7,0 256,0 114.5,0 0,114.5 0,256 0,397.5 114.5,512 256,512 375.2,512 474.8,430.1 503.6,320.2 h -67 C 410.5,394.7 339.8,447.7 256,447.7 149.9,447.7 64.2,362.1 64.2,255.9 64.2,149.7 149.9,64.2 256,64.2 c 53.1,0 100.5,22.3 135,56.8 L 287.7,224.3 H 512 V 0 Z"
   id="XMLID_4_" />
</g>
</svg>
