<svg width="305" height="304" xmlns="http://www.w3.org/2000/svg" xmlns:xlink="http://www.w3.org/1999/xlink" overflow="hidden"><defs><clipPath id="clip0"><path d="M688 378 993 378 993 682 688 682Z" fill-rule="evenodd" clip-rule="evenodd"/></clipPath><clipPath id="clip1"><path d="M751.382 385.273 984.326 440.078 929.522 673.022 696.578 618.218Z" fill-rule="evenodd" clip-rule="evenodd"/></clipPath><clipPath id="clip2"><path d="M751.382 385.273 984.326 440.078 929.522 673.022 696.578 618.218Z" fill-rule="evenodd" clip-rule="evenodd"/></clipPath><clipPath id="clip3"><path d="M751.382 385.273 984.326 440.078 929.522 673.022 696.578 618.218Z" fill-rule="evenodd" clip-rule="evenodd"/></clipPath></defs><g clip-path="url(#clip0)" transform="translate(-688 -378)"><path d="M689 529.5C689 445.829 756.829 378 840.5 378 924.171 378 992 445.829 992 529.5 992 613.171 924.171 681 840.5 681 756.829 681 689 613.171 689 529.5Z" fill="#A20000" fill-rule="evenodd"/><g clip-path="url(#clip1)"><g clip-path="url(#clip2)"><g clip-path="url(#clip3)"><path d="M812.478 604.512 826.339 545.597C790.456 531.483 772.809 490.952 786.924 455.069 792.525 440.83 802.648 428.825 815.737 420.901L910.837 443.275C931.459 475.856 921.763 518.985 889.182 539.607 876.253 547.79 860.994 551.499 845.751 550.164L831.89 609.079 851.302 613.646C856.662 614.908 859.986 620.276 858.724 625.636 857.463 630.996 852.095 634.32 846.735 633.058L788.499 619.357C783.138 618.096 779.815 612.728 781.076 607.368 782.338 602.007 787.705 598.684 793.066 599.945L812.478 604.512ZM803.34 469.2 900.4 492.035C901.355 477.612 900.407 467.146 897.544 460.634L819.896 442.366C814.431 446.918 808.915 455.864 803.34 469.2Z" fill="#FFFFFF"/></g></g></g></g></svg>